# xmcd CD database file
#
# Track frame offsets:
#	150
#	12869
#	26726
#	39703
#	53494
#	67067
#	80636
#	94322
#	108349
#	121675
#	136702
#	151091
#	164678
#	177884
#	191975
#	204131
#	218452
#	231914
#	245540
#	257125
#	272282
#	286366
#
# Disc length: 3983 seconds
#
# Revision: 0
# Processed by: cddbd v1.5.2PL0 Copyright (c) Steve Scherf et al.
# Submitted via: CDex 1.70beta2
#
DISCID=2d0f8d16
DTITLE=Thelonious Monk - Well You Needn't
DYEAR=1900
DGENRE=Jazz
TTITLE0=Flyin' Hawk
TTITLE1=Driftin' on a Reed
TTITLE2=Humph
TTITLE3=Evonce
TTITLE4=Suburban Eyes
TTITLE5=Thelonious
TTITLE6=Nice Work If You Can Get It
TTITLE7=Ruby, My Dear
TTITLE8=Well, You Needn't
TTITLE9=April in Paris
TTITLE10=Introspection
TTITLE11=Off Minor
TTITLE12=In Walked Bud
TTITLE13=Monk's Mood
TTITLE14=Who Knows?
TTITLE15='Round About Midnight
TTITLE16=All the Things You Are
TTITLE17=I Should Care
TTITLE18=Evidence
TTITLE19=Misterioso
TTITLE20=Epistrophy
TTITLE21=I Mean You
EXTD=
EXTT0=
EXTT1=
EXTT2=
EXTT3=
EXTT4=
EXTT5=
EXTT6=
EXTT7=
EXTT8=
EXTT9=
EXTT10=
EXTT11=
EXTT12=
EXTT13=
EXTT14=
EXTT15=
EXTT16=
EXTT17=
EXTT18=
EXTT19=
EXTT20=
EXTT21=
PLAYORDER=
